<?xml version="1.0" standalone="no"?><!DOCTYPE svg PUBLIC "-//W3C//DTD SVG 1.1//EN" "http://www.w3.org/Graphics/SVG/1.1/DTD/svg11.dtd"><svg class="icon" width="200px" height="200.00px" viewBox="0 0 1024 1024" version="1.1" xmlns="http://www.w3.org/2000/svg"><path fill="#e6e6e6" d="M509.348423 982.680195c-257.398039 0-466.915967-209.467353-466.915967-466.908742 0-257.441389 209.510703-466.915967 466.915967-466.915967 257.484739 0 466.908742 209.467353 466.908742 466.915967C976.257165 773.212841 766.833162 982.680195 509.348423 982.680195L509.348423 982.680195zM509.348423 131.560121c-211.851605 0-384.211331 172.359726-384.211331 384.211331 0 211.851605 172.359726 384.211331 384.211331 384.211331 211.851605 0 384.211331-172.352501 384.211331-384.211331C893.559754 303.919848 721.200028 131.560121 509.348423 131.560121L509.348423 131.560121zM403.624921 723.74323c-6.545855 0-13.09171-1.734001-18.980089-5.122529C372.853623 711.829196 365.585268 699.272137 365.585268 685.653002L365.585268 345.918803c0-13.61191 7.268355-26.168969 19.066789-32.953249 11.791209-6.78428 26.327919-6.78428 38.039653 0l294.231116 169.895999c11.791209 6.78428 18.980089 19.341339 19.066789 32.953249 0 13.604685-7.27558 26.168969-19.066789 32.953249l-294.231116 169.859874C416.78888 722.009229 410.243025 723.74323 403.624921 723.74323L403.624921 723.74323zM441.751274 411.861427l0 207.892302 180.025457-103.946151L441.751274 411.861427 441.751274 411.861427z" /></svg>
