<?xml version="1.0" standalone="no"?><!DOCTYPE svg PUBLIC "-//W3C//DTD SVG 1.1//EN" "http://www.w3.org/Graphics/SVG/1.1/DTD/svg11.dtd"><svg class="icon" width="200px" height="200.00px" viewBox="0 0 1024 1024" version="1.1" xmlns="http://www.w3.org/2000/svg"><path fill="#e6e6e6" d="M638.9 592.6c-11.4 0-20-2.1-25.7-6.2-5.7-4.7-9.6-12.2-11.2-22.9h-20.3c3.1 30.9 22.4 46.5 57.7 46.5 38 0 56.9-14 56.9-41.6 0-11.7-5.5-20.8-16.1-27.6-7-4.4-18.5-8.6-34.6-12.5-13.5-3.6-22.9-6.5-27.8-8.8-7.8-3.9-11.4-8.8-11.4-14.6 0-6 2.9-10.7 8.6-14 5.2-3.6 12.5-5.2 21.8-5.2 10.7 0 19 2.1 24.7 6.2 5.2 3.6 8.6 9.9 10.4 18.2h20.3c-3.6-28.1-21.8-41.9-55.1-41.9-15.1 0-27.6 3.4-36.9 10.1-10.1 6.8-15.1 15.6-15.1 27s4.9 20 15.3 26.3c6.2 4.2 17.4 8.1 33.3 12 14.6 3.6 24.2 6.5 28.6 8.6 8.3 4.2 12.7 9.9 12.7 17.4 0 15.2-12.2 23-36.1 23zM494.1 591.8c-11.4 0-21.1-2.9-28.3-8.3-8.3-6.2-13-15.3-14-27h-21.1c1.3 16.9 8.3 30.4 21.3 40.3 11.4 8.8 25.5 13.3 41.9 13.3 18.2 0 33.8-5.7 46.3-16.9 13.3-12 20-27.3 20-46 0-20-5.7-35.6-16.6-47.1-10.9-11.2-25.2-16.6-42.9-16.6-8.6 0-16.4 1.3-23.7 4.4-8.1 3.1-14.8 7.8-20 14h-1l6.2-62.1h90.5v-19h-108l-9.9 102.4h20.3c3.6-7.3 9.4-13 16.6-16.6 7-3.9 14.8-5.7 23.7-5.7 13.5 0 24.2 3.9 31.7 12.2 7.8 8.1 12 19.5 12 34.3 0 13-4.4 23.7-12.7 32-8.7 8.3-19.3 12.4-32.3 12.4zM368.2 606.4h21.3V420.8h-16.6c-6.2 7-13.5 13.3-22.4 19-8.8 5.2-17.7 8.8-26 11.2v21.3c17.4-5.2 32-13.5 43.7-25.5v159.6zM166.4 89.6L60.1 156.8 166.4 224zM300.8 89.6l-106.3 67.2L300.8 224z"  /><path fill="#e6e6e6" d="M512 32c-46.7 0-91.8 6.7-134.4 19.1l5.6 19.2C424.7 58.2 467.9 52 512 52c254.1 0 460 205.9 460 460S766.1 972 512 972 52 766.1 52 512c0-78.3 19.6-153.7 56.3-220.8l-17.5-9.6C53.3 350 32 428.5 32 512c0 265.1 214.9 480 480 480s480-214.9 480-480S777.1 32 512 32z"  /></svg>
