<?xml version="1.0" standalone="no"?><!DOCTYPE svg PUBLIC "-//W3C//DTD SVG 1.1//EN" "http://www.w3.org/Graphics/SVG/1.1/DTD/svg11.dtd"><svg class="icon" width="200px" height="200.00px" viewBox="0 0 1024 1024" version="1.1" xmlns="http://www.w3.org/2000/svg"><path fill="#e6e6e6" d="M762.9 565.1c0 62.8-51 113.8-113.8 113.8-60.2 0-109.4-46.8-113.4-106.1l49.8 16.6c9.8 25.7 34.5 44 63.6 44 37.7 0 68.3-30.6 68.3-68.3s-30.6-68.3-68.3-68.3c-25 0-46.6 13.6-58.5 33.6l-43.7-14.6c3.1-6.4 6.6-12.5 10.7-18.2l23.6-133.8c0.2-0.9 0.7-1.5 0.9-2.4 0.4-1.5 0.9-2.9 1.7-4.2 0.7-1.3 1.5-2.4 2.4-3.5 0.9-1.1 1.9-2.2 3-3.1 1.1-0.9 2.3-1.7 3.6-2.4 1.3-0.7 2.5-1.3 3.9-1.7 1.5-0.5 2.9-0.7 4.5-0.9 0.9-0.1 1.6-0.5 2.5-0.5h121.4c12.6 0 22.8 10.2 22.8 22.8s-10.2 22.8-22.8 22.8H622.6l-11.9 67.4c12-4.3 24.8-6.8 38.3-6.8 62.9 0 113.9 51 113.9 113.8zM466.5 345.2c0.2 0 0.3-0.1 0.5-0.1h0.2c2.2 0.1 4.3 0.6 6.4 1.3 0.9 0.3 1.9 0.4 2.8 0.8 0.9 0.4 1.6 1.1 2.4 1.6 1.9 1.2 3.7 2.4 5.1 4.1l0.1 0.1c0.1 0.1 0.1 0.3 0.2 0.4 3.3 3.9 5.5 8.8 5.5 14.4V641c0 12.6-10.2 22.8-22.8 22.8s-22.8-10.2-22.8-22.8V416.1l-32.8 27.5c-9.6 8.1-24 6.8-32.1-2.8-8.1-9.6-6.8-24 2.8-32.1l69.7-58.5c4.5-3.6 9.7-5 14.8-5z m99.1 561.3c-106.2 0-202.2-42.2-273.1-110.4-9-5.3-15.1-14.9-15.1-26.1 0-16.8 13.6-30.3 30.3-30.3 9 0 17 4 22.6 10.3l0.7-0.6c60.3 59.7 143.2 96.5 234.7 96.5 184.4 0 333.8-149.5 333.8-333.8S750 178.2 565.6 178.2c-168.3 0-307.2 124.7-330.1 286.8l51.9-51.9c11.9-11.9 31.1-11.9 42.9 0 11.9 11.9 11.9 31.1 0 42.9L223 563.3c-11.9 11.9-31.1 11.9-42.9 0L72.8 456c-11.9-11.9-11.9-31.1 0-42.9 11.9-11.9 31.1-11.9 42.9 0l57.6 57.6C194 272.2 361.7 117.5 565.6 117.5c217.9 0 394.5 176.6 394.5 394.5S783.5 906.5 565.6 906.5z" /></svg>
