<?xml version="1.0" standalone="no"?><!DOCTYPE svg PUBLIC "-//W3C//DTD SVG 1.1//EN" "http://www.w3.org/Graphics/SVG/1.1/DTD/svg11.dtd"><svg class="icon" width="200px" height="176.10px" viewBox="0 0 1163 1024" version="1.1" xmlns="http://www.w3.org/2000/svg"><path fill="#e6e6e6" d="M11.450182 438.760727a39.330909 39.330909 0 0 1 0.139636-55.621818 39.191273 39.191273 0 0 1 55.621818 0L141.963636 457.960727C168.680727 200.657455 386.048 0 650.472727 0c282.437818 0 511.348364 228.910545 511.348364 511.348364 0 282.437818-228.910545 511.348364-511.488 511.232-137.541818 0-262.097455-54.690909-353.978182-143.127273a39.005091 39.005091 0 0 1-19.595636-33.815273c0-21.643636 17.501091-39.261091 39.284363-39.261091 11.659636 0 22.039273 5.306182 30.208 12.567273a431.499636 431.499636 0 0 0 304.197819 125.090909c238.894545 0 432.686545-193.652364 432.686545-432.686545 0-239.010909-193.792-432.663273-432.686545-432.663273-218.135273 0-398.056727 161.629091-427.869091 371.479273l67.025454-67.025455a39.191273 39.191273 0 0 1 55.598546 0 39.191273 39.191273 0 0 1 0 55.621818L206.149818 577.861818a39.191273 39.191273 0 0 1-55.621818 0L11.450182 438.760727z m482.187636-51.712l-42.519273 35.653818a29.556364 29.556364 0 0 1-41.611636-3.630545 29.556364 29.556364 0 0 1 3.630546-41.611636l90.344727-75.822546c5.585455-4.677818 12.171636-6.493091 18.920727-6.493091 0.256 0 0.395636-0.139636 0.651636-0.139636 3.118545 0.139636 5.818182 0.791273 8.564364 1.698909 1.163636 0.395636 2.443636 0.512 3.607273 1.024 1.163636 0.535273 2.094545 1.442909 3.118545 2.094545 2.466909 1.536 4.794182 3.095273 6.609455 5.306182 0.256 0.256 0.256 0.512 0.395636 0.651637 4.282182 5.050182 7.121455 11.403636 7.121455 18.664727v354.117818a29.393455 29.393455 0 1 1-58.856728 0V387.048727z m413.090909 193.140364a147.409455 147.409455 0 1 1-294.493091 9.984l64.558546 21.504a88.250182 88.250182 0 0 0 82.432 57.018182c48.872727 0 88.529455-39.656727 88.529454-88.506182 0-48.872727-39.656727-88.529455-88.529454-88.529455-32.418909 0-60.416 17.617455-75.822546 43.543273l-56.645818-18.920727c4.002909-8.308364 8.541091-16.197818 13.870546-23.598546l30.580363-173.428363c0.256-1.163636 0.907636-1.954909 1.163637-3.118546a20.014545 20.014545 0 0 1 2.210909-5.445818c0.907636-1.675636 1.931636-3.095273 3.095272-4.538182 1.163636-1.396364 2.466909-2.839273 3.909819-4.002909 1.396364-1.163636 2.978909-2.210909 4.654545-3.118545a24.901818 24.901818 0 0 1 5.050182-2.210909 29.090909 29.090909 0 0 1 5.818182-1.163637c1.186909-0.116364 2.094545-0.651636 3.258182-0.651636h157.370181a29.556364 29.556364 0 1 1 0 59.112727h-132.887272l-15.406546 87.365818a146.478545 146.478545 0 0 1 49.640727-8.820363 147.618909 147.618909 0 0 1 147.642182 147.525818z" /></svg>
