<?xml version="1.0" standalone="no"?><!DOCTYPE svg PUBLIC "-//W3C//DTD SVG 1.1//EN" "http://www.w3.org/Graphics/SVG/1.1/DTD/svg11.dtd"><svg class="icon" width="200px" height="200.00px" viewBox="0 0 1024 1024" version="1.1" xmlns="http://www.w3.org/2000/svg"><path fill="#e6e6e6" d="M464.47521707 83.92851093L262.34296 291.76925227h-123.251376c-52.67374613 0-78.49166613 28.54242347-78.49166507 79.14035733v263.3687296c0 49.68976533 26.72608747 79.14035733 78.49166507 79.14035627h123.251376l202.13225707 207.84074133c57.99301547 54.7495584 146.34479147 30.7479744 146.34479146-60.32830507V144.256816c0-91.984448-89.38968213-114.03995733-146.34479146-60.32830507z m67.85312533 736.0053216c0 59.80935147-26.4666112 26.20713493-53.32243733-0.5189536-47.09499947-46.8355232-118.58079787-122.47294613-177.09276587-185.52575466H191.63559147c-39.82965547 0-52.54400747-13.36304427-52.54400747-52.67374614V423.3238784C139.091584 384.92134507 152.58436693 370.65013227 191.63559147 370.65013227h111.44519146c58.2524928-63.44202347 128.95986027-138.9497088 176.0548608-185.13653974 26.72608747-26.20713493 53.19269867-60.71752 53.19269867 1.55685974v632.86338026zM820.9960384 446.54703253l-74.72925547-74.72925546c-15.43885653-15.43885653-40.60808533-15.43885653-56.0469408 0-15.5685952 15.5685952-15.43885653 40.60808533 0 56.04694186l74.72925547 74.72925547-74.72925547 74.7292544c-15.43885653 15.43885653-15.43885653 40.47834667 0 56.04694187 15.5685952 15.5685952 40.60808533 15.43885653 56.0469408 0l74.72925547-74.72925547 74.72925547 74.72925547c15.43885653 15.43885653 40.60808533 15.43885653 56.04694186 0 15.5685952-15.5685952 15.43885653-40.60808533 0-56.04694187l-74.72925546-74.7292544 74.72925546-74.72925547c15.43885653-15.43885653 15.43885653-40.60808533 0-56.04694186-15.5685952-15.5685952-40.60808533-15.43885653-56.04694186 0l-74.72925547 74.72925546z" /></svg>
