<?xml version="1.0" standalone="no"?><!DOCTYPE svg PUBLIC "-//W3C//DTD SVG 1.1//EN" "http://www.w3.org/Graphics/SVG/1.1/DTD/svg11.dtd"><svg class="icon" width="200px" height="176.10px" viewBox="0 0 1163 1024" version="1.1" xmlns="http://www.w3.org/2000/svg"><path fill="#e6e6e6" d="M353.978182 678.562909V387.048727l-42.496 35.653818a29.556364 29.556364 0 0 1-41.611637-3.630545 29.556364 29.556364 0 0 1 3.630546-41.611636l90.344727-75.822546c5.585455-4.677818 12.171636-6.493091 18.920727-6.493091 0.256 0 0.395636-0.139636 0.651637-0.139636h0.256c2.862545 0.139636 5.585455 0.791273 8.308363 1.698909 1.163636 0.395636 2.443636 0.512 3.607273 1.024 1.163636 0.535273 2.094545 1.442909 3.118546 2.094545 2.466909 1.536 4.794182 3.095273 6.609454 5.306182l0.139637 0.116364c0.116364 0.139636 0.116364 0.395636 0.232727 0.535273 4.305455 5.050182 7.144727 11.403636 7.144727 18.664727v354.117818a29.393455 29.393455 0 1 1-58.856727 0z m413.114182-98.373818a147.409455 147.409455 0 1 1-294.493091 9.984l64.558545 21.504a88.250182 88.250182 0 0 0 82.432 57.018182c48.872727 0 88.529455-39.656727 88.529455-88.506182 0-48.872727-39.656727-88.529455-88.529455-88.529455-32.418909 0-60.416 17.617455-75.822545 43.543273l-56.645818-18.920727c4.002909-8.308364 8.541091-16.197818 13.870545-23.598546l30.580364-173.428363c0.256-1.163636 0.907636-1.954909 1.163636-3.118546a20.014545 20.014545 0 0 1 2.210909-5.445818c0.907636-1.675636 1.931636-3.095273 3.095273-4.538182 1.163636-1.396364 2.466909-2.839273 3.909818-4.002909 1.396364-1.163636 2.978909-2.210909 4.654545-3.118545a24.901818 24.901818 0 0 1 5.050182-2.210909 29.090909 29.090909 0 0 1 5.818182-1.163637c1.186909-0.116364 2.094545-0.651636 3.258182-0.651636h157.370182a29.556364 29.556364 0 1 1 0 59.112727h-132.887273l-15.406545 87.365818a146.478545 146.478545 0 0 1 49.640727-8.820363 147.618909 147.618909 0 0 1 147.642182 147.525818z m383.301818-141.428364l-139.101091 139.077818a39.191273 39.191273 0 0 1-55.621818 0l-139.054546-139.077818a39.191273 39.191273 0 0 1 0-55.621818 39.191273 39.191273 0 0 1 55.598546 0l67.025454 67.025455c-29.835636-209.850182-209.733818-371.479273-427.892363-371.479273-238.894545 0-432.663273 193.629091-432.663273 432.663273 0 239.010909 193.768727 432.686545 432.663273 432.686545 118.597818 0 226.071273-47.848727 304.221091-125.090909l0.907636 0.768a39.493818 39.493818 0 0 1 29.300364-13.335273c21.76 0 39.261091 17.617455 39.26109 39.261091 0 14.522182-7.912727 27.089455-19.54909 33.838546-91.927273 88.389818-216.482909 143.104-354.001455 143.104C228.910545 1022.696727 0 793.809455 0 511.348364 0 228.910545 228.910545 0 511.348364 0c264.424727 0 481.792 200.657455 508.509091 457.937455l74.775272-74.775273a39.191273 39.191273 0 0 1 55.621818 0 39.330909 39.330909 0 0 1 0.116364 55.621818z" /></svg>
