<?xml version="1.0" standalone="no"?><!DOCTYPE svg PUBLIC "-//W3C//DTD SVG 1.1//EN" "http://www.w3.org/Graphics/SVG/1.1/DTD/svg11.dtd"><svg class="icon" width="200px" height="200.00px" viewBox="0 0 1024 1024" version="1.1" xmlns="http://www.w3.org/2000/svg"><path fill="#e6e6e6" d="M343.262609 367.482435a165.910261 165.910261 0 0 1-34.459826 29.250782 170.295652 170.295652 0 0 1-40.069566 17.229913v32.857044c26.846609-8.013913 49.285565-20.836174 67.31687-39.268174V653.57913h32.857043V367.482435H343.262609z m517.988174 111.415652C844.421565 276.168348 674.54887 116.869565 467.478261 116.869565 249.254957 116.869565 72.347826 293.776696 72.347826 512S249.254957 907.130435 467.478261 907.130435a394.99687 394.99687 0 0 0 348.560696-208.851478 27.826087 27.826087 0 1 1 49.062956 26.267826A450.649043 450.649043 0 0 1 467.478261 962.782609C218.512696 962.782609 16.695652 760.965565 16.695652 512S218.512696 61.217391 467.478261 61.217391c231.980522 0 423.045565 175.237565 448.022261 400.584348l32.790261-45.122782a26.713043 26.713043 0 1 1 43.208347 31.387826l-91.046956 125.350956-125.350957-91.069217a26.713043 26.713043 0 0 1 31.387826-43.230609l54.76174 39.780174z m-407.396174-111.415652h166.288695v29.250782h-139.442087l-9.616695 95.766261h1.602782c8.013913-9.616696 18.432-16.829217 30.853566-21.637565 11.219478-4.808348 23.240348-6.811826 36.463304-6.811826 27.247304 0 49.285565 8.414609 66.114783 25.644522 16.829217 17.630609 25.644522 41.672348 25.644521 72.525913 0 28.850087-10.418087 52.49113-30.853565 70.92313-19.233391 17.229913-43.27513 26.045217-71.323826 26.045218-25.243826 0-46.881391-6.811826-64.512-20.435479-20.034783-15.226435-30.853565-36.062609-32.857044-62.107826h32.456348c1.602783 18.031304 8.815304 32.055652 21.637566 41.672348 11.219478 8.414609 26.045217 12.822261 43.675826 12.822261 20.034783 0 36.463304-6.41113 49.68626-19.233391 12.822261-12.822261 19.634087-29.250783 19.634087-49.285566 0-22.839652-6.41113-40.470261-18.432-52.891826-11.620174-12.822261-28.048696-18.832696-48.884869-18.832695-13.623652 0-25.644522 2.80487-36.463304 8.815304a56.765217 56.765217 0 0 0-25.644522 25.644522h-31.254261l15.226435-157.874087z"  /></svg>
