<?xml version="1.0" standalone="no"?><!DOCTYPE svg PUBLIC "-//W3C//DTD SVG 1.1//EN" "http://www.w3.org/Graphics/SVG/1.1/DTD/svg11.dtd"><svg class="icon" width="32px" height="32.00px" viewBox="0 0 1024 1024" version="1.1" xmlns="http://www.w3.org/2000/svg"><path fill="#e6e6e6" d="M333.226667 642.915556c18.986667-18.986667 43.306667-22.044444 59.022222-6.613334 18.915556 18.986667 17.92 42.097778 0 60.8-11.875556 12.373333-80.355556 78.933333-205.226667 199.395556h169.457778c19.484444-0.426667 35.84 16.782222 35.84 41.813333s-16.284444 35.413333-35.84 35.84l-271.857778-0.924444c-9.315556 0.284444-18.346667-3.342222-24.888889-9.955556-6.328889-6.257778-8.604444-15.146667-8.462222-24.96l1.564445-270.933333c0.426667-19.626667 17.706667-31.857778 39.395555-31.857778s36.48 12.231111 36.053333 31.857778v175.644444l205.013334-200.106666h-0.071111z m358.897777 0l205.013334 200.106666v-175.644444c-0.426667-19.626667 14.293333-31.857778 35.982222-31.857778 21.76 0 38.968889 12.231111 39.395556 31.857778l1.564444 270.933333c0.213333 9.884444-2.133333 18.702222-8.462222 24.96-6.542222 6.613333-15.573333 10.24-24.888889 9.955556l-271.857778 0.924444c-19.555556-0.426667-35.84-10.88-35.84-35.84s16.355556-42.24 35.84-41.813333H838.4c-124.871111-120.533333-193.28-187.022222-205.226667-199.395556-17.92-18.631111-18.915556-41.813333 0-60.871111 15.644444-15.36 39.964444-12.302222 58.951111 6.684445zM333.226667 382.506667L128.213333 182.4v175.644444c0.426667 19.626667-14.293333 31.857778-35.982222 31.857778-21.76 0-38.968889-12.231111-39.395555-31.857778l-1.564445-270.933333c-0.213333-9.884444 2.133333-18.702222 8.462222-24.96 6.542222-6.613333 15.573333-10.24 24.888889-9.955555L356.408889 51.2c19.555556 0.426667 35.84 10.88 35.84 35.84s-16.355556 42.24-35.84 41.813333H187.022222c124.871111 120.533333 193.28 187.022222 205.226667 199.395556 17.92 18.631111 18.915556 41.813333 0 60.871111-15.715556 15.36-40.035556 12.373333-59.022222-6.613333z m358.897777 0c-18.986667 18.986667-43.306667 22.044444-59.022222 6.613333-18.915556-18.986667-17.92-42.097778 0-60.8 11.875556-12.373333 80.355556-78.933333 205.226667-199.395556H668.942222c-19.484444 0.426667-35.84-16.782222-35.84-41.813333s16.284444-35.413333 35.84-35.84l271.857778 0.924445c9.315556-0.284444 18.346667 3.342222 24.888889 9.955555 6.328889 6.257778 8.604444 15.146667 8.462222 24.96l-1.564444 270.933333c-0.426667 19.626667-17.706667 31.857778-39.395556 31.857778s-36.48-12.231111-36.053333-31.857778v-175.644444L691.982222 382.506667h0.142222z" /></svg>