<?xml version="1.0" standalone="no"?><!DOCTYPE svg PUBLIC "-//W3C//DTD SVG 1.1//EN" "http://www.w3.org/Graphics/SVG/1.1/DTD/svg11.dtd"><svg class="icon" width="32px" height="29.49px" viewBox="0 0 1111 1024" version="1.1" xmlns="http://www.w3.org/2000/svg"><path fill="#e6e6e6" d="M850.964767 299.207111h153.911902a42.634876 42.634876 0 0 1 0 85.269752h-252.27056a41.35583 41.35583 0 0 1-34.917964-11.426147 41.995353 41.995353 0 0 1-12.236209-29.37543c-0.042635-0.596888-0.341079-1.065872-0.341079-1.66276V85.862192c0-23.449182 19.015155-42.464336 42.464336-42.464336h0.341079c23.449182 0 42.464336 19.015155 42.464337 42.464336v154.380886L1016.047006 13.766617a42.208527 42.208527 0 0 1 59.688827 0 42.506971 42.506971 0 0 1 0 59.902001L850.964767 299.207111zM405.345045 897.587593c0 23.449182-19.057789 42.464336-42.506971 42.464336h-0.298444a42.464336 42.464336 0 0 1-42.464337-42.464336v-153.357648l-225.453223 225.453223a42.293797 42.293797 0 1 1-59.859366-59.902L261.622879 682.920993H108.222595a42.634876 42.634876 0 0 1 0-85.269751h255.809255a42.634876 42.634876 0 0 1 42.634876 42.634876c0 2.344918-0.980602 4.348757-1.321681 6.608405v250.69307zM364.159755 384.476863H108.222595a42.634876 42.634876 0 0 1 0-85.269752h153.911902L36.041751 72.346937a42.506971 42.506971 0 0 1 0-59.902001 42.080622 42.080622 0 0 1 59.688826 0L321.396975 238.921396v-153.059204c0-23.449182 19.015155-42.464336 42.506971-42.464336h0.255809c23.491817 0 42.506971 19.015155 42.506971 42.464336v256.107699A42.506971 42.506971 0 0 1 364.159755 384.476863z m387.252577 213.174379H1003.554988a42.634876 42.634876 0 0 1 0 85.269751h-153.400283l225.538493 225.538493a42.293797 42.293797 0 1 1-59.902001 59.859366L790.380609 742.908264V896.095373a42.634876 42.634876 0 0 1-85.269752 0v-251.417863a41.526369 41.526369 0 0 1 11.298242-35.600122 41.526369 41.526369 0 0 1 35.003233-11.426146z" /></svg>